<?xml version="1.0" standalone="no"?>
<!DOCTYPE svg PUBLIC "-//W3C//DTD SVG 20010904//EN"
 "http://www.w3.org/TR/2001/REC-SVG-20010904/DTD/svg10.dtd">
<svg version="1.0" xmlns="http://www.w3.org/2000/svg"
 width="338.000000pt" height="308.000000pt" viewBox="0 0 338.000000 308.000000"
 preserveAspectRatio="xMidYMid meet">

<g transform="translate(0.000000,308.000000) scale(0.100000,-0.100000)"
fill="#000000" stroke="none">
<path d="M1276 2820 c-103 -33 -198 -66 -211 -74 -27 -17 -55 -74 -55 -110 0
-14 13 -68 30 -118 16 -51 26 -95 22 -98 -4 -3 -32 -25 -62 -47 -30 -23 -70
-58 -89 -77 l-34 -35 -95 49 c-100 53 -142 61 -190 36 -42 -22 -53 -39 -152
-229 -86 -166 -92 -182 -87 -224 6 -58 36 -89 142 -145 74 -40 80 -46 78 -73
-1 -17 -5 -74 -9 -127 l-7 -97 -100 -32 c-74 -23 -108 -38 -128 -61 -50 -52
-48 -79 17 -290 32 -104 66 -202 75 -217 19 -31 74 -61 111 -61 14 0 68 13
120 29 l95 28 42 -56 c22 -31 59 -74 80 -95 l40 -39 -50 -94 c-52 -100 -60
-143 -35 -191 21 -41 38 -53 216 -147 249 -132 287 -129 375 36 44 83 54 94
75 92 14 -2 71 -6 127 -9 l101 -7 31 -96 c35 -112 52 -138 97 -157 50 -21 67
-18 258 41 206 64 230 75 256 118 26 43 24 84 -9 192 l-28 89 61 47 c33 26 74
61 90 78 17 17 35 31 42 31 7 0 50 -20 95 -45 99 -53 147 -58 200 -22 35 23
61 66 171 280 54 104 60 122 56 161 -8 64 -33 91 -136 143 -86 44 -93 50 -88
73 3 14 9 70 12 126 l7 101 96 31 c53 18 107 39 120 48 26 18 51 71 51 107 0
34 -114 391 -134 422 -19 29 -71 55 -110 55 -20 0 -147 -36 -201 -56 -6 -3
-28 19 -48 48 -20 29 -56 72 -80 96 l-44 43 48 92 c56 107 62 154 26 208 -18
26 -65 56 -207 132 -173 92 -188 98 -233 94 -62 -5 -91 -33 -148 -143 l-44
-85 -35 6 c-19 3 -76 8 -126 12 l-91 6 -31 96 c-18 53 -39 107 -48 120 -19 26
-71 51 -106 50 -13 0 -108 -27 -212 -59z m219 -228 c32 -92 52 -124 90 -145
11 -6 74 -14 140 -19 66 -4 152 -11 190 -14 95 -7 119 9 180 120 26 47 51 86
56 86 11 0 182 -85 216 -107 l22 -15 -44 -89 c-65 -129 -61 -163 34 -263 32
-33 79 -90 104 -125 79 -110 115 -120 258 -75 45 14 85 22 89 17 15 -16 81
-246 73 -253 -4 -4 -45 -20 -90 -34 -85 -28 -125 -53 -144 -89 -7 -11 -15 -77
-20 -146 -4 -69 -11 -155 -14 -191 -9 -90 8 -114 122 -175 48 -26 89 -49 91
-50 3 -2 -113 -229 -124 -243 -1 -2 -42 17 -90 42 -129 68 -167 63 -268 -32
-33 -32 -90 -80 -124 -107 -71 -53 -102 -95 -102 -139 0 -17 12 -68 26 -114
14 -47 22 -88 17 -92 -13 -13 -242 -82 -251 -76 -5 3 -19 38 -31 78 -26 89
-51 133 -88 151 -24 12 -152 28 -348 44 -79 6 -110 -17 -167 -122 -27 -49 -49
-90 -51 -91 -2 -3 -236 113 -245 122 -2 1 17 41 42 89 51 96 59 151 29 195 -9
14 -44 55 -78 91 -34 36 -79 91 -101 122 -40 57 -85 87 -130 87 -15 0 -64 -12
-111 -26 -47 -14 -89 -22 -93 -17 -14 16 -80 247 -73 254 5 4 47 19 94 33 70
21 93 33 118 61 17 20 31 37 32 38 0 1 5 58 9 127 5 69 12 157 15 195 8 96 -7
119 -123 182 l-90 48 20 40 c11 22 40 77 65 123 l44 82 88 -45 c96 -49 149
-57 191 -28 14 9 53 43 87 74 35 32 90 76 123 99 97 66 108 106 64 248 -14 46
-23 86 -20 89 8 8 240 82 250 79 5 -1 23 -43 41 -94z"/>
<path d="M1616 2011 c-3 -5 -16 -7 -28 -3 -14 3 -19 1 -14 -6 3 -6 1 -14 -5
-18 -8 -4 -9 -3 -5 4 5 8 -1 12 -14 12 -12 0 -19 -4 -16 -9 4 -5 -4 -7 -16 -3
-16 4 -19 2 -13 -8 5 -9 4 -11 -3 -6 -23 14 -188 -91 -201 -127 -2 -7 -15 -20
-28 -30 -12 -10 -23 -25 -23 -33 0 -8 -4 -14 -8 -14 -13 0 -53 -90 -46 -102 4
-6 2 -8 -4 -4 -14 9 -40 -112 -41 -196 -1 -38 3 -68 7 -68 5 0 7 -11 4 -25 -2
-15 0 -25 7 -25 7 0 9 5 5 12 -4 7 -3 8 5 4 9 -6 9 -11 0 -22 -6 -8 -8 -21 -3
-31 4 -10 8 -21 9 -25 2 -5 3 -9 5 -10 1 -2 3 -11 5 -20 6 -31 46 -88 57 -82
7 4 8 2 4 -5 -10 -16 50 -88 108 -129 42 -31 51 -32 47 -8 -1 5 5 4 13 -3 8
-7 13 -18 10 -25 -5 -14 70 -46 159 -67 82 -20 308 5 292 31 -3 6 1 7 9 4 18
-7 76 22 76 38 0 6 3 8 6 5 11 -10 45 13 38 25 -4 7 -3 8 4 4 7 -4 32 12 59
39 27 26 43 44 37 41 -6 -3 -11 1 -11 8 0 8 6 12 13 9 25 -9 116 174 109 219
-2 10 1 20 6 24 5 3 9 43 9 89 0 66 -3 84 -16 89 -9 3 -21 3 -26 -1 -7 -4 -8
-1 -4 6 5 7 14 10 22 7 9 -4 14 2 14 15 0 11 -4 17 -10 14 -5 -3 -7 0 -4 8 7
18 -32 113 -45 110 -6 -2 -8 3 -5 10 2 7 -4 22 -15 34 -11 11 -18 23 -15 26 3
3 -6 14 -20 25 -14 10 -23 22 -20 24 2 3 -16 22 -41 42 -41 34 -50 37 -46 13
1 -5 -3 -6 -8 -2 -6 3 -8 12 -5 20 7 18 -138 89 -167 82 -10 -3 -17 -2 -14 3
2 4 -12 10 -33 14 -56 9 -160 7 -166 -3z m60 -27 c2 -12 -1 -13 -12 -3 -7 6
-11 16 -8 21 7 11 17 3 20 -18z m-251 -71 c-2 -10 -4 -19 -4 -21 -1 -2 -6 0
-11 3 -8 5 -7 11 1 21 15 18 18 18 14 -3z m429 -62 c-2 -3 -12 3 -22 13 -16
17 -16 18 5 5 12 -7 20 -15 17 -18z m-39 -21 c24 -10 46 -16 49 -13 3 4 6 2 6
-3 0 -5 22 -22 48 -38 45 -28 122 -126 122 -155 0 -7 3 -10 8 -8 10 7 16 -43
16 -138 0 -89 -6 -145 -15 -145 -3 0 -14 -18 -24 -40 -10 -22 -22 -40 -27 -40
-5 0 -8 -8 -6 -17 2 -10 -1 -18 -7 -18 -5 0 -16 -4 -24 -9 -11 -7 -11 -10 0
-18 11 -8 10 -9 -2 -5 -21 7 -62 -21 -53 -35 4 -6 2 -8 -3 -5 -6 4 -32 -2 -58
-14 -44 -19 -45 -22 -28 -36 16 -13 15 -13 -8 0 -15 9 -35 14 -45 11 -38 -9
-152 -9 -146 0 3 5 -4 7 -16 4 -12 -3 -22 -3 -24 1 -2 3 -25 17 -53 31 -27 14
-72 46 -98 73 -27 26 -45 42 -41 35 4 -8 3 -10 -2 -5 -5 5 -9 14 -10 20 -1 18
-28 77 -34 77 -3 0 -7 14 -8 31 -1 18 -5 36 -8 41 -9 14 -10 128 -1 128 4 0 7
8 7 18 0 24 53 134 73 151 10 7 17 19 17 27 0 13 14 23 112 72 32 16 56 31 53
33 -2 3 39 5 91 6 74 1 105 -3 139 -17z m-458 -13 c0 -8 -6 -14 -14 -14 -9 0
-10 4 -2 14 6 7 12 13 14 13 1 0 2 -6 2 -13z m53 -31 c0 -2 -8 -10 -17 -17
-16 -13 -17 -12 -4 4 13 16 21 21 21 13z m731 -33 c13 -16 12 -17 -3 -4 -17
13 -22 21 -14 21 2 0 10 -8 17 -17z m36 -98 c0 -8 -4 -12 -9 -9 -5 3 -6 10 -3
15 9 13 12 11 12 -6z m-851 -57 c3 -4 -1 -5 -10 -4 -8 1 -18 5 -22 8 -3 4 1 5
10 4 8 -1 18 -5 22 -8z m-31 -67 c3 -5 2 -12 -3 -15 -5 -3 -9 1 -9 9 0 17 3
19 12 6z m761 -239 c-3 -3 0 -12 6 -21 10 -13 10 -14 -2 -4 -16 15 -23 46 -8
37 5 -3 7 -9 4 -12z m141 1 c0 -9 -4 -10 -14 -2 -7 6 -13 12 -13 14 0 1 6 2
13 2 8 0 14 -6 14 -14z m-923 -61 c3 -5 -1 -9 -9 -9 -8 0 -12 4 -9 9 3 4 7 8
9 8 2 0 6 -4 9 -8z m120 -31 c3 -5 -2 -15 -12 -22 -15 -12 -16 -12 -5 2 7 9
10 19 6 22 -3 4 -4 7 0 7 3 0 8 -4 11 -9z m141 -90 c3 -5 2 -12 -3 -15 -5 -3
-9 1 -9 9 0 17 3 19 12 6z"/>
</g>
</svg>
